<svg id="Calque_1" data-name="Calque 1" xmlns="http://www.w3.org/2000/svg" viewBox="0 0 522 360"><defs><style>.cls-1{fill:#448bca;}.cls-2{fill:#403d56;}.cls-3{fill:#575da6;}.cls-4{fill:#2f2f41;}.cls-5{fill:#fff;}.cls-6{fill:#f5b3b6;}.cls-7{fill:#e6e5e5;}.cls-8{fill:#f8ae15;}.cls-9{isolation:isolate;opacity:0.2;}</style></defs><path class="cls-1" d="M460.86,231.75c-.19-.76-.38-1.51-.59-2.26-4.93-18-17.13-35.17-34.91-40.93-14.94-4.84-31.24-1.12-46.81-3-30.58-3.78-54.29-28.52-71-54.43s-29.51-54.9-51.67-76.3c-36.54-35.28-96.14-42.88-141.44-19.91S40.31,108.79,41.54,159.56s31.37,99.32,75.15,125.07a124.26,124.26,0,0,0,14.09,7.17h0l.73.3,1.41.59,2.35.92,1.34.48,1.8.63,1.25.41,2,.61,1,.28q1.41.41,2.82.75l1,.24,2.12.46,1,.2c1,.19,2,.36,3,.51l.46.06c.87.12,1.75.23,2.63.32l.95.09c.8.07,1.61.13,2.41.17l.72,0c1,0,2,.06,3,.05h.78l2.39-.09.92-.06c1-.07,2-.16,3-.29h.12c1-.13,2-.28,3-.46,7.1-1.25,14-3.66,20.79-6.11h0c7.51-2.68,15-5.4,22.86-6.66,25.13-4,50.1,7.34,71.84,20.58s42.73,28.94,67.43,35.08c24,6,53.71-11.18,75.74-28C456.41,294,468.3,262.12,460.86,231.75Z"/><path class="cls-2" d="M459.19,274.08a79.28,79.28,0,0,1-8.61,18.16L261.64,292c-14.52-5.94-29.79-9.21-45.12-6.76-7.85,1.26-15.35,4-22.85,6.66l-62.91-.08a125.65,125.65,0,0,1-14.07-7.17,148,148,0,0,1-16.17-11Z"/><path class="cls-2" d="M261.64,292l-68-.1c7.5-2.69,15-5.4,22.85-6.66C231.85,282.77,247.12,286,261.64,292Z"/><path class="cls-2" d="M325,215.4v53.73a2.59,2.59,0,0,0,2.59,2.58h79.61a2.59,2.59,0,0,0,2.59-2.58V215.4a2.59,2.59,0,0,0-2.59-2.58H327.54A2.59,2.59,0,0,0,325,215.4Z"/><path class="cls-3" d="M326.82,216.07v52.39a1.38,1.38,0,0,0,1.38,1.38h78.29a1.38,1.38,0,0,0,1.38-1.38V216.07a1.38,1.38,0,0,0-1.38-1.38H328.2A1.38,1.38,0,0,0,326.82,216.07Z"/><path class="cls-4" d="M323.29,279.6a1.55,1.55,0,0,0,1.22.59h85.25a1.56,1.56,0,0,0,1.56-1.57,1.66,1.66,0,0,0,0-.32L410,272a1.57,1.57,0,0,0-1-1.14,1.5,1.5,0,0,0-.56-.1h-82.6a1.54,1.54,0,0,0-.56.1,1.57,1.57,0,0,0-1,1.14L323,278.3A1.53,1.53,0,0,0,323.29,279.6Z"/><rect class="cls-2" x="405.2" y="271.9" width="2.63" height="1.58" rx="0.31"/><rect class="cls-2" x="399.95" y="271.9" width="2.63" height="1.58" rx="0.31"/><rect class="cls-2" x="394.7" y="271.9" width="2.63" height="1.58" rx="0.31"/><rect class="cls-2" x="389.45" y="271.9" width="2.63" height="1.58" rx="0.31"/><rect class="cls-2" x="384.2" y="271.9" width="2.63" height="1.58" rx="0.31"/><rect class="cls-2" x="378.95" y="271.9" width="2.63" height="1.58" rx="0.31"/><rect class="cls-2" x="373.7" y="271.9" width="2.63" height="1.58" rx="0.31"/><rect class="cls-2" x="368.44" y="271.9" width="2.63" height="1.58" rx="0.31"/><rect class="cls-2" x="363.19" y="271.9" width="2.63" height="1.58" rx="0.31"/><rect class="cls-2" x="357.94" y="271.9" width="2.63" height="1.58" rx="0.31"/><rect class="cls-2" x="352.69" y="271.9" width="2.63" height="1.58" rx="0.31"/><rect class="cls-2" x="347.44" y="271.9" width="2.63" height="1.58" rx="0.31"/><rect class="cls-2" x="342.19" y="271.9" width="2.63" height="1.58" rx="0.31"/><rect class="cls-2" x="336.94" y="271.9" width="2.63" height="1.58" rx="0.31"/><rect class="cls-2" x="331.68" y="271.9" width="2.63" height="1.58" rx="0.31"/><rect class="cls-2" x="326.43" y="271.9" width="2.63" height="1.58" rx="0.31"/><rect class="cls-2" x="405.27" y="274.52" width="2.63" height="1.58" rx="0.31"/><rect class="cls-2" x="400.01" y="274.52" width="2.63" height="1.58" rx="0.31"/><rect class="cls-2" x="394.76" y="274.52" width="2.63" height="1.58" rx="0.31"/><rect class="cls-2" x="389.51" y="274.52" width="2.63" height="1.58" rx="0.31"/><rect class="cls-2" x="384.26" y="274.52" width="2.63" height="1.58" rx="0.31"/><rect class="cls-2" x="379.01" y="274.52" width="2.63" height="1.58" rx="0.31"/><rect class="cls-2" x="373.76" y="274.52" width="2.63" height="1.58" rx="0.31"/><rect class="cls-2" x="368.51" y="274.52" width="2.63" height="1.58" rx="0.31"/><rect class="cls-2" x="363.25" y="274.52" width="2.63" height="1.58" rx="0.31"/><rect class="cls-2" x="358" y="274.52" width="2.63" height="1.58" rx="0.31"/><rect class="cls-2" x="352.75" y="274.52" width="2.63" height="1.58" rx="0.31"/><rect class="cls-2" x="347.5" y="274.52" width="2.63" height="1.58" rx="0.31"/><rect class="cls-2" x="342.25" y="274.52" width="2.63" height="1.58" rx="0.31"/><rect class="cls-2" x="337" y="274.52" width="2.63" height="1.58" rx="0.31"/><rect class="cls-2" x="331.75" y="274.52" width="2.63" height="1.58" rx="0.31"/><rect class="cls-2" x="326.5" y="274.52" width="2.63" height="1.58" rx="0.31"/><rect class="cls-2" x="361.68" y="277.67" width="21.01" height="1.58" rx="0.31"/><rect class="cls-5" x="337.62" y="226.15" width="3.74" height="1.96" rx="0.98"/><rect class="cls-5" x="358.01" y="226.15" width="3.74" height="1.96" rx="0.98"/><rect class="cls-5" x="363.78" y="226.15" width="3.74" height="1.96" rx="0.98"/><rect class="cls-5" x="343.16" y="225.98" width="13.04" height="1.96" rx="0.98"/><rect class="cls-5" x="370.35" y="225.98" width="13.04" height="1.96" rx="0.98"/><rect class="cls-5" x="343.05" y="230.57" width="3.74" height="1.96" rx="0.98"/><rect class="cls-5" x="363.44" y="230.57" width="3.74" height="1.96" rx="0.98"/><rect class="cls-5" x="369.22" y="230.57" width="3.74" height="1.96" rx="0.98"/><rect class="cls-5" x="348.6" y="230.4" width="13.04" height="1.96" rx="0.98"/><rect class="cls-5" x="375.78" y="230.4" width="13.04" height="1.96" rx="0.98"/><rect class="cls-5" x="348.49" y="234.98" width="3.74" height="1.96" rx="0.98"/><rect class="cls-5" x="368.88" y="234.98" width="3.74" height="1.96" rx="0.98"/><rect class="cls-5" x="374.66" y="234.98" width="3.74" height="1.96" rx="0.98"/><rect class="cls-5" x="354.04" y="234.82" width="13.04" height="1.96" rx="0.98"/><rect class="cls-5" x="381.22" y="234.82" width="13.04" height="1.96" rx="0.98"/><rect class="cls-5" x="353.93" y="239.4" width="3.74" height="1.96" rx="0.98"/><rect class="cls-5" x="374.32" y="239.4" width="3.74" height="1.96" rx="0.98"/><rect class="cls-5" x="380.09" y="239.4" width="3.74" height="1.96" rx="0.98"/><rect class="cls-5" x="359.47" y="239.24" width="13.04" height="1.96" rx="0.98"/><rect class="cls-5" x="358.01" y="256.97" width="3.74" height="1.96" rx="0.98"/><rect class="cls-5" x="363.78" y="256.97" width="3.74" height="1.96" rx="0.98"/><rect class="cls-5" x="370.35" y="257.13" width="13.04" height="1.96" rx="0.98"/><rect class="cls-5" x="337.62" y="256.97" width="3.74" height="1.96" rx="0.98"/><rect class="cls-5" x="343.16" y="257.13" width="13.04" height="1.96" rx="0.98"/><rect class="cls-5" x="343.05" y="252.55" width="3.74" height="1.96" rx="0.98"/><rect class="cls-5" x="363.44" y="252.55" width="3.74" height="1.96" rx="0.98"/><rect class="cls-5" x="369.22" y="252.55" width="3.74" height="1.96" rx="0.98"/><rect class="cls-5" x="348.6" y="252.71" width="13.04" height="1.96" rx="0.98"/><rect class="cls-5" x="348.49" y="248.13" width="3.74" height="1.96" rx="0.98"/><rect class="cls-5" x="368.88" y="248.13" width="3.74" height="1.96" rx="0.98"/><rect class="cls-5" x="374.66" y="248.13" width="3.74" height="1.96" rx="0.98"/><rect class="cls-5" x="354.04" y="248.29" width="13.04" height="1.96" rx="0.98"/><rect class="cls-5" x="353.93" y="243.71" width="3.74" height="1.96" rx="0.98"/><rect class="cls-5" x="374.32" y="243.71" width="3.74" height="1.96" rx="0.98"/><rect class="cls-5" x="380.09" y="243.71" width="3.74" height="1.96" rx="0.98"/><rect class="cls-5" x="359.47" y="243.88" width="13.04" height="1.96" rx="0.98"/><path class="cls-6" d="M330.9,308.74l-8.37-13.23,26.27-20.94,10.84-12A12,12,0,0,1,380,266.84h0a12,12,0,0,1-7.25,15l-17.14,6.31Z"/><path class="cls-4" d="M134.55,212.82v64.3h45v-64.3a2.17,2.17,0,0,0-1.53-2.07,2.25,2.25,0,0,0-.64-.1h-40.7a2.17,2.17,0,0,0-2.17,2.17Zm17.57,22.09a4.81,4.81,0,0,1,9.62,0v7.46a4.81,4.81,0,0,1-9.62,0Z"/><path class="cls-2" d="M134.41,275.06v6.2a1.22,1.22,0,0,0,1.21,1.22h42.9a1.21,1.21,0,0,0,1.2-1.22v-6.2Z"/><path class="cls-2" d="M63.69,116V233.35A5.65,5.65,0,0,0,69.33,239h174a5.64,5.64,0,0,0,5.64-5.64V116a5.65,5.65,0,0,0-5.64-5.64h-174A5.66,5.66,0,0,0,63.69,116Z"/><path class="cls-5" d="M67.77,117.42V231.9a3,3,0,0,0,3,3H241.84a3,3,0,0,0,3-3V117.42a3,3,0,0,0-3-3h-171A3,3,0,0,0,67.77,117.42Z"/><path class="cls-4" d="M99.52,282.06a1.84,1.84,0,0,0,1.45.69H202.74a1.87,1.87,0,0,0,1.87-1.87,2.58,2.58,0,0,0,0-.39L203,273a1.87,1.87,0,0,0-1.17-1.36,1.84,1.84,0,0,0-.66-.12H102.54a1.87,1.87,0,0,0-1.83,1.48l-1.58,7.5A1.89,1.89,0,0,0,99.52,282.06Z"/><path class="cls-1" d="M236.29,130.17H76.23a.64.64,0,0,1-.62-.65.65.65,0,0,1,.62-.63H236.29a.64.64,0,0,1,0,1.28Z"/><ellipse class="cls-1" cx="87.13" cy="121.83" rx="3.73" ry="3.81"/><ellipse class="cls-1" cx="100.02" cy="121.83" rx="3.73" ry="3.81"/><ellipse class="cls-1" cx="112.9" cy="121.83" rx="3.73" ry="3.81"/><path class="cls-1" d="M228.53,119h-9.15a.7.7,0,0,0,0,1.39h9.15a.7.7,0,0,0,0-1.39Z"/><path class="cls-1" d="M228.53,121.56h-9.15a.7.7,0,0,0,0,1.39h9.15a.7.7,0,0,0,0-1.39Z"/><path class="cls-1" d="M228.53,124.16h-9.15a.7.7,0,0,0,0,1.39h9.15a.7.7,0,0,0,0-1.39Z"/><rect class="cls-1" x="145.64" y="164.77" width="31.79" height="6.8" rx="2.05"/><rect class="cls-7" x="129.49" y="178.37" width="64.09" height="6.8" rx="2.05"/><rect class="cls-7" x="129.49" y="191.97" width="64.09" height="6.8" rx="2.05"/><path class="cls-5" d="M337.22,297.54H174.44c.9-13.65,2.95-28.34,7.29-39.13a39.46,39.46,0,0,1,4.63-8.63c.14-.2.26-.36.37-.53,1.36-1.9,2.49-3.74,3.57-5.52a54.59,54.59,0,0,1,4.21-6.26l-.26-.83,38.58-24.73,5.46-7.57a8.87,8.87,0,0,1,7.18-3.67l21,.09a8.84,8.84,0,0,1,8.21,5.62l1.45,3.72L306.25,225a8.09,8.09,0,0,1,3.37,3.11h0l6.83,11.16.19.32a46.22,46.22,0,0,1,4.91,7.06c1.2,2,2.43,4,3.92,6C332.68,262.46,335.9,280.37,337.22,297.54Z"/><circle id="a657ec4b-47ce-4d2a-9c58-81a811696ca9" class="cls-6" cx="256.6" cy="168.77" r="27.93"/><path class="cls-4" d="M294.36,149.25a2.4,2.4,0,0,0-1.69-.74l.42-1.17a2.2,2.2,0,0,0-1.3-2.84,2.16,2.16,0,0,0-1.18-.1l-1.53.29.14-1a2.21,2.21,0,0,0-1.87-2.51,2.24,2.24,0,0,0-1.09.11,2.34,2.34,0,0,1-2-.14,2.39,2.39,0,0,1-1.21-1.64l-.53-2.57-.06-.13c-2.59-4.33-7.58-7.48-13.69-8.63-5.43-1-11-.51-16.38,0-2.13.2-4.54.42-6.54,1.65a5.71,5.71,0,0,0-2.85,5.29c-5.3-1.63-11,1.61-13.8,5.7-3.33,4.87-3.88,11-4,15.72-.24,11.28,2.08,20.5,6.89,27.42.35.5.44,1.55,1.14,1.9l-.15-.23c.78.38,1.57,1,1.28,1.68-.85,1.93,4.77,6.2,8.73,7.61,7.23,2.58,16.84,2.36,23.6,1.43l.24-1.6c2.44-.33,4.15-1,4.64-1.95.85-.73,1.58-1.38,2.21-2h0l.05,0c3-2.93,3.76-4.6,4.08-7.14a20.59,20.59,0,0,0-.8-7.29c11.75,1.82-4.63-12.51,6.32-15.28l.38-.1.95-.23a16.87,16.87,0,0,0,4.21-1.8c3.06-1.87,4.07-4.34,5.65-7.12A2.16,2.16,0,0,0,294.36,149.25Z"/><path class="cls-2" d="M426.46,249.87c.39,2.23,4.79,3.81,10.08,3.53,4.87-.22,8.84-1.93,9.57-4a2.6,2.6,0,0,0-.83-.11l-18.37.47A2.32,2.32,0,0,0,426.46,249.87Z"/><path class="cls-4" d="M427.45,277.05a2.91,2.91,0,0,0,2.79,1.95l11.94-.31a2.84,2.84,0,0,0,2.7-2.1l1.69-18.07a4.48,4.48,0,0,0,1.91.39,4.36,4.36,0,0,0-.22-8.71,4.13,4.13,0,0,0-.78.08,3,3,0,0,0-2.2-.94l-18.37.47a2.32,2.32,0,0,0-.45.06,2.87,2.87,0,0,0-2.3,3.34c0,.13.06.26.1.38Zm19.47-19.76,1.2-4.31a2.9,2.9,0,0,0,0-1.52l.17,0a3.11,3.11,0,0,1,.14,6.22A2.88,2.88,0,0,1,446.92,257.29Z"/><path class="cls-1" d="M436.28,266.23a5.69,5.69,0,0,1-3.45-1.09,3.87,3.87,0,0,0-2.43-.79v-1.88a5.62,5.62,0,0,1,3.45,1.09,4.15,4.15,0,0,0,4.87,0,5.62,5.62,0,0,1,3.45-1.09v1.88a3.87,3.87,0,0,0-2.43.79A5.7,5.7,0,0,1,436.28,266.23Z"/><path class="cls-1" d="M436.28,269.79a5.69,5.69,0,0,1-3.45-1.09,3.87,3.87,0,0,0-2.43-.79V266a5.69,5.69,0,0,1,3.45,1.09,4.11,4.11,0,0,0,4.87,0,5.69,5.69,0,0,1,3.45-1.09v1.89a3.87,3.87,0,0,0-2.43.79A5.7,5.7,0,0,1,436.28,269.79Z"/><path class="cls-8" d="M438.87,262a3.25,3.25,0,0,0,0-.33,2.61,2.61,0,0,0-5.21,0,3.25,3.25,0,0,0,0,.33,5,5,0,0,0,5.17,0Z"/><path class="cls-1" d="M180.76,266.35c.79-2.23,1.7-4.61,2.74-7.2a37.51,37.51,0,0,1,4.4-8.21l.42-.58c3.3-4.63,5.39-9.18,8.35-12.42h0l37.47-24.54,5.69-7.88a6.86,6.86,0,0,1,5.55-2.84h0l36.15.05v-4l-36.13-.05h-.05a10.86,10.86,0,0,0-8.79,4.5l-5.25,7.26-37,23.7-2.17,2.93c-1.32,1.74-2.48,3.64-3.69,5.62-1.07,1.76-2.17,3.57-3.45,5.35l-.37.53,0,0,0,0a41,41,0,0,0-4.86,9.06c-1.28,3.16-2.35,6-3.26,8.66Z"/><path class="cls-4" d="M353.82,290a4.36,4.36,0,0,0-.17-.51,5.17,5.17,0,0,0-.34-.71c-.05-.09-.1-.18-.16-.27s-.14-.22-.21-.33l-.19-.26c-.13-.18-.27-.35-.42-.53l0-.05c-.11-.13-.22-.25-.35-.38a.47.47,0,0,0-.1-.1l-.26-.27c-.28-.27-.58-.54-.91-.83l-.28-.25c-.12-.08-.23-.18-.35-.27h0c-.36-.29-.73-.56-1.13-.84l-.35-.24c-.53-.36-1.1-.73-1.7-1.1l-.94-.55-.28-.16-.2-.11-1.29-.71-1.37-.71-1.07-.52-.48-.23-.2-.1-.49-.22-.64-.3-1.32-.59-.68-.29c-.28-.13-.55-.25-.83-.36l-.85-.35-.87-.36-.89-.35L334,277l-.74-.29-2.5-.94L329,275.1l-2.84-1-3-1-3.87-1.23-1.33-.41q-2.7-.84-5.54-1.65c-1.26-.37-2.54-.73-3.83-1.09q-2.91-.81-5.93-1.6l-2.58-.65-.21-.06c-1.18-.31-2.39-.61-3.59-.91l-1.45-.35c-1.78-.43-3.56-.86-5.37-1.28l-2.72-.63c-5.53-1.26-11.2-2.46-16.9-3.59l-2.6-.51-2.18-.42-2.18-.4-1.28-.25-2.83-.51q-5.58-1-11.1-1.89c-3.67-.59-7.32-1.15-10.91-1.65-2.37-.34-4.7-.66-7-.94-.31-.05-.61-.09-.92-.12l-2.42-.3c-.5-.07-1-.12-1.52-.18s-1.32-.16-2-.23l-1.48-.16-.59-.06-1.9-.21-.46,0-2-.2-.21,0-2.14-.2-2.11-.19L210,251l-.93-.07-.56,0-1.25-.09-1.45-.09L204,250.6l-1.93-.1-2.69-.12h-.2l-3-.09c-2.1-.05-4.09-.06-6,0l-1.94.05-.68,0-.67,0-.78,0-.66,0c-2.33.15-4.44.37-6.3.66l-.66.11-.46.09-.31.06c-.84.17-1.61.35-2.32.56a4.21,4.21,0,0,0-.42.12c-.1,0-.18.07-.28.09l-.73.26a11.35,11.35,0,0,0-2,1l-.27.18a5.46,5.46,0,0,0-.71.56,1.29,1.29,0,0,0-.17.16l-.05.05-.08.08-.07.09a.27.27,0,0,0-.07.08l-.09.1-.19.27,0,.07,0,.06-.07.11a1,1,0,0,0,0,.1,2.52,2.52,0,0,0-.15.34c0,.38,0,.76.07,1.15.07,1.17.13,2.39.19,3.67.93,19.61.8,43.36,2.89,64.21l.19,1.84a17,17,0,0,0,1,3.5c1.5,3.46,3.8,4.51,5.65,7.81a5.35,5.35,0,0,0,2.1,2.12q2.73,1.46,5.51,2.81l.25.13,1.89.9.08,0q4.49,2.12,9.09,4,6,2.44,12.23,4.4c.89.29,1.79.56,2.69.84l.59.17a166.87,166.87,0,0,0,42.22,6.78l2.18.05.73,0H262c1.61,0,3.22,0,4.82-.07A166.79,166.79,0,0,0,302,355.17c1.55-.37,3.08-.77,4.61-1.2s2.92-.82,4.37-1.26a171,171,0,0,0,21.78-8.31l.65-.3q2.07-1,4.12-2,3.64-1.81,7.22-3.8l.67-.38a5.43,5.43,0,0,0,2.6-3.25v0l.25-1q.09-.36.15-.72c.08-.38.16-.7.23-1s.11-.35.16-.49l4-16.11a4.54,4.54,0,0,0,.14-.82c.13-1.39.53-5.87.62-8.32,0-.22,0-.44,0-.67.13-3.25.21-6.18.29-9.67,0-.28,0-.55,0-.81,0-1.9.07-3.43.07-4.53A4.59,4.59,0,0,0,353.82,290Z"/><path class="cls-9" d="M348.78,331.45l4-16.33a2.14,2.14,0,0,0,.06-.35c.09-1,.54-5.95.64-8.56l0-.67c.13-3.72.22-7,.28-9.67q0-.42,0-.81c.05-1.9.06-3.44.07-4.54a4,4,0,0,0-.11-.5,3.16,3.16,0,0,0-.17-.52,4.19,4.19,0,0,0-.34-.71l-.15-.27-.22-.32a2.4,2.4,0,0,0-.18-.26c-.14-.18-.27-.36-.42-.53L352,287a.94.94,0,0,0-.1-.1,2.29,2.29,0,0,0-.27-.27c-.27-.28-.57-.55-.9-.83s-.41-.35-.63-.52h0c-.46-.36-.94-.71-1.47-1.08s-1.1-.72-1.71-1.09l-.93-.55-.28-.16c-.48-.28-1-.55-1.49-.82l-1.37-.71-1.55-.75L341,280l-.49-.23-.63-.29-1.33-.59-.67-.3-.84-.36-.84-.35-.88-.35c-.43-.19-.88-.37-1.34-.54l-.74-.29c-.81-.32-1.64-.63-2.49-.95L329,275.1c-.92-.34-1.87-.67-2.84-1l-2.94-1-3.88-1.24-1.33-.4c-1.79-.55-3.64-1.11-5.53-1.66l-3.83-1.08q-2.92-.81-5.94-1.59l-2.57-.67-.21-.05h0l-3.59-.9-1.46-.36q-2.65-.64-5.36-1.27l-2.72-.63c-5.53-1.26-11.2-2.46-16.9-3.59l-2.6-.51-2.18-.42-3.46-.65-2.83-.52q-5.58-1-11.1-1.88c-3.67-.59-7.32-1.14-10.92-1.65-2.36-.34-4.7-.65-7-.95q-5.81-.74-11.27-1.3l-2-.2-.21,0-2.14-.2-2.11-.18L210,251l-1.49-.12-1.24-.08-1.45-.1-1.85-.12-1.93-.1c-.91,0-1.8-.09-2.69-.11h-.19l-3-.09c-2.09-.05-4.09-.06-6,0l-1.95.05-.68,0-.67,0-.77,0-.66,0c-2.33.14-4.45.36-6.31.66l-.65.11-.78.14c-.83.17-1.6.36-2.32.57a3.31,3.31,0,0,0-.42.12l-.27.09-.74.25a12.06,12.06,0,0,0-2,1l-.27.17a6.6,6.6,0,0,0-.72.56l-.16.16s0,0,0,.05l-.08.09a.27.27,0,0,0-.07.08,1.46,1.46,0,0,0-.16.19,2.22,2.22,0,0,0-.19.27.83.83,0,0,0-.08.12l-.06.12a.36.36,0,0,0,0,.09s0,0,0,0a2.92,2.92,0,0,0-.14.31c0,.37,0,.75.07,1.14v0a2.45,2.45,0,0,0,3,2.23,26.79,26.79,0,0,1,9,.16,145.29,145.29,0,0,1,22,5.56c4.13,1.32,8.51,2.83,13.11,4.49,23.81,8.64,53.2,21.59,80.12,34.9.47.22.94.45,1.4.69,11.75,5.83,23,11.72,33.09,17.35.93.52,1.85,1,2.75,1.55,5,2.84,9.76,5.61,14.06,8.26C348.67,331.76,348.73,331.6,348.78,331.45Z"/></svg>